# xmcd CD database file
# Copyright (C) 1993-1998 Ti Kan
#
# Track frame offsets:
#	183
#	12823
#	26393
#	40440
#	50745
#	68078
#	77445
#	87823
#	101040
#	112245
#	125945
#	136148
#	149113
#	161933
#	172583
#	184545
#	198933
#	213690
#	224165
#	236740
#	249273
#	263243
#	274773
#	287018
#	299418
#	311010
#
# Disc length: 4292 seconds
#
# Revision: 2
# Processed by: cddbd v1.4b41PL1 Copyright (c) Steve Scherf et al.
# Submitted via: NotifyCDPlayer(CDDB) 1.51.3
#
DISCID=9410c21a
DTITLE=Johnny Paycheck - Greatest Hits
DYEAR=1900
DGENRE=
TTITLE0=Take This Job And Shove It
TTITLE1=Slide Off Your Satin Sheets
TTITLE2=Somebody Loves Me
TTITLE3=Motel Time Again
TTITLE4=In Memory Of  A Memory
TTITLE5=Mr. Lovemaker
TTITLE6=A-11
TTITLE7=She's All I Got
TTITLE8=For A Minute There
TTITLE9=The Only Hell My Mother Ever Raised
TTITLE10=Loving You Beats All I Ever Seen
TTITLE11=Song And Dance Man
TTITLE12=Keep On Lovin' Me
TTITLE13=Jukebox Charlie
TTITLE14=Something About You I Like
TTITLE15=Someone To Give My Love To
TTITLE16=Green, Green Grass Of Home
TTITLE17=Don't Monkey Around With Another Monkey's Monkey
TTITLE18=Heaven's Almost As Big As Texas
TTITLE19=Close All The Honky Tonks
TTITLE20=Almost Persuaded
TTITLE21=Release Me
TTITLE22=All The Time
TTITLE23=Crazy Arms
TTITLE24=Heartaches By The Number
TTITLE25=Apartment #9
EXTD=
EXTT0=
EXTT1=
EXTT2=
EXTT3=
EXTT4=
EXTT5=
EXTT6=
EXTT7=
EXTT8=
EXTT9=
EXTT10=
EXTT11=
EXTT12=
EXTT13=
EXTT14=
EXTT15=
EXTT16=
EXTT17=
EXTT18=
EXTT19=
EXTT20=
EXTT21=
EXTT22=
EXTT23=
EXTT24=
EXTT25=
PLAYORDER=
